#!OML:ASF F:\twosubjects\two\Thursday\Session 1\justin.ASF
:FULLY-SPECIFIED
:DEGREES
369
root 9.34392 17.8408 -24.1837 -15.8518 -79.6417 18.83
lowerback 0.183675 0.369369 -3.80932
upperback -0.28581 0.482022 1.24405
thorax -0.438797 0.255313 3.41307
lowerneck -21.3097 5.48943 -5.46904
upperneck 23.0174 8.1532 4.85248
head 10.4389 3.82295 3.83199
rclavicle -1.58034e-014 1.35174e-014
rhumerus -39.0667 -34.5934 -39.3658
rradius 35.2796
rwrist -22.26
rhand -22.7643 3.47552
rfingers 7.12502
rthumb 3.67068 -26.4726
lclavicle -1.58034e-014 1.35174e-014
lhumerus -31.1699 28.4162 44.4932
lradius 31.1201
lwrist 2.34979
lhand -6.02892 47.6048
lfingers 7.12502
lthumb 19.8046 76.6158
rfemur -17.2985 -4.20002 20.3855
rtibia 48.2054
rfoot -10.2196 -4.98774
rtoes -22.1122
lfemur -15.5692 4.0022 -21.1866
ltibia 40.9927
lfoot -5.26524 -14.8578
ltoes -32.567
370
root 9.36828 17.613 -24.1847 -15.0873 -79.6065 18.183
lowerback 0.0956983 0.244486 -3.55177
upperback -0.25823 0.319483 1.13462
thorax -0.344681 0.170658 3.15647
lowerneck -19.6094 5.18436 -6.29277
upperneck 20.9703 7.72475 5.48733
head 9.35484 3.70479 3.96039
rclavicle -8.07563e-015 -7.95139e-016
rhumerus -39.0147 -35.3795 -41.9089
rradius 34.8703
rwrist -21.0961
rhand -21.7403 3.32918
rfingers 7.12502
rthumb 4.6595 -26.5996
lclavicle -8.07563e-015 -7.95139e-016
lhumerus -31.8486 28.5397 46.3786
lradius 31.3826
lwrist 2.83749
lhand -3.0533 48.8929
lfingers 7.12502
lthumb 22.6628 77.5823
rfemur -17.4571 -4.36946 20.7638
rtibia 49.3385
rfoot -13.5875 -6.27096
rtoes -27.4126
lfemur -15.623 3.92308 -21.1525
ltibia 42.3432
lfoot -8.91834 -12.5513
ltoes -33.4836
371
root 9.39003 17.3829 -24.1901 -17.3775 -79.6083 20.537
lowerback 0.0811785 0.27736 -3.90369
upperback -0.18131 0.363934 0.912491
thorax -0.262 0.190649 3.12578
lowerneck -21.0224 5.96847 -3.79497
upperneck 21.5256 8.51013 3.87276
head 9.95996 4.05571 3.19545
rclavicle 1.28713e-014 2.38542e-015
rhumerus -39.155 -36.467 -44.1146
rradius 34.4142
rwrist -19.2573
rhand -20.7548 3.32876
rfingers 7.12502
rthumb 5.6111 -26.577
lclavicle 1.28713e-014 2.38542e-015
lhumerus -32.1233 28.9568 48.4252
lradius 31.3384
lwrist 2.80505
lhand -2.42373 49.1879
lfingers 7.12502
lthumb 23.2669 77.8022
rfemur -17.877 -4.76505 20.675
rtibia 50.2985
rfoot -16.4623 -8.42827
rtoes -35.1927
lfemur -15.6883 4.29922 -21.6062
ltibia 43.5226
lfoot -12.4793 -10.9528
ltoes -31.7709
372
root 9.40563 17.2147 -24.1964 -20.1342 -79.5522 23.3228
lowerback 0.159879 0.340677 -4.5101
upperback -0.0905406 0.444965 0.838252
thorax -0.223835 0.229682 3.39028
lowerneck -21.3562 6.06151 -3.29872
upperneck 21.7373 8.61552 3.39098
head 10.1428 4.07613 2.98846
rclavicle 3.72473e-014 3.02153e-014
rhumerus -39.0427 -36.8946 -46.4614
rradius 34.089
rwrist -17.8448
rhand -20.1337 3.39638
rfingers 7.12502
rthumb 6.21076 -26.4926
lclavicle 3.72473e-014 3.02153e-014
lhumerus -32.3616 29.7797 50.7134
lradius 31.1781
lwrist 2.53938
lhand -2.43586 49.1354
lfingers 7.12502
lthumb 23.2553 77.7512
rfemur -17.7449 -3.58654 19.7844
rtibia 51.3397
rfoot -21.4962 -6.82363
rtoes -22.7986
lfemur -15.6526 4.9089 -22.0658
ltibia 44.1666
lfoot -15.6199 -10.4228
ltoes -26.8361
373
root 9.42513 17.0406 -24.1936 -22.4554 -79.4288 25.3307
lowerback 0.813408 0.350886 -5.10064
upperback -0.0378638 0.423085 0.933243
thorax -0.539565 0.227092 3.81794
lowerneck -22.3892 6.28663 -2.19617
upperneck 22.9008 8.91175 2.23522
head 10.8685 4.11 2.54365
rclavicle 4.12478e-015 -4.77083e-015
rhumerus -38.4339 -35.9518 -49.3033
rradius 33.6398
rwrist -17.3216
rhand -19.7434 3.22762
rfingers 7.12502
rthumb 6.5875 -26.6499
lclavicle 4.12478e-015 -4.77083e-015
lhumerus -32.92 30.7528 52.8825
lradius 30.9751
lwrist 1.58313
lhand -0.654819 49.1411
lfingers 7.12502
lthumb 24.963 77.5305
rfemur -17.4628 -3.46892 19.1386
rtibia 52.1842
rfoot -25.1382 -5.59384
rtoes -16.7007
lfemur -15.262 5.02139 -22.3617
ltibia 44.5864
lfoot -18.2979 -10.4861
ltoes -21.2024
374
root 9.45616 16.8659 -24.1892 -22.7851 -79.3466 25.1598
lowerback 1.83377 0.334245 -5.14336
upperback -0.0268113 0.345677 1.01658
thorax -1.09373 0.203471 3.92536
lowerneck -22.4627 6.29347 -2.43571
upperneck 22.7182 8.83404 2.86292
head 10.7683 4.14517 2.78798
rclavicle -9.16894e-015 -5.56597e-015
rhumerus -37.7472 -34.347 -52.5161
rradius 33.0161
rwrist -17.0489
rhand -19.1449 2.98207
rfingers 7.12502
rthumb 7.16525 -26.8766
lclavicle -9.16894e-015 -5.56597e-015
lhumerus -33.5544 32.1263 54.5641
lradius 30.5135
lwrist -1.11453
lhand 3.02989 49.234
lfingers 7.12502
lthumb 28.4891 77.0845
rfemur -17.2454 -3.73088 19.0689
rtibia 52.9971
rfoot -28.057 -5.13823
rtoes -13.3015
lfemur -14.7848 4.8459 -22.2981
ltibia 44.9419
lfoot -20.5716 -10.3436
ltoes -14.7419
375
root 9.49243 16.6869 -24.1756 -20.3509 -79.6223 22.2213
lowerback 2.6653 0.431551 -4.27206
upperback 0.076318 0.459491 1.09327
thorax -1.45959 0.261982 3.50574
lowerneck -22.2685 6.3548 -2.96347
upperneck 23.0964 8.98783 3.2733
head 10.8149 4.21197 3.04425
rclavicle -1.07841e-014 8.74653e-015
rhumerus -37.4379 -34.0513 -55.2098
rradius 32.1754
rwrist -15.2884
rhand -17.922 3.06873
rfingers 7.12502
rthumb 8.34562 -26.7464
lclavicle -1.07841e-014 8.74653e-015
lhumerus -33.3531 31.5036 57.8766
lradius 30.3439
lwrist 0.639804
lhand -0.459777 49.404
lfingers 7.12502
lthumb 25.1499 77.7672
rfemur -17.0893 -3.79749 19.727
rtibia 53.6694
rfoot -30.5752 -5.10832
rtoes -8.9378
lfemur -14.478 5.09471 -21.712
ltibia 45.543
lfoot -23.2355 -9.44713
ltoes -12.297
376
root 9.5212 16.5149 -24.1635 -17.2748 -80.2824 18.5544
lowerback 3.39062 0.708613 -3.07563
upperback 0.264075 0.844222 1.15026
thorax -1.69191 0.446438 2.86802
lowerneck -22.3872 6.10349 -3.07696
upperneck 22.886 8.60964 3.52225
head 10.7553 4.07004 3.0924
rclavicle 4.11484e-014 0
rhumerus -37.3049 -33.819 -57.8547
rradius 31.3115
rwrist -13.5235
rhand -16.7153 3.57465
rfingers 7.12502
rthumb 9.51003 -26.1908
lclavicle 4.11484e-014 0
lhumerus -33.019 30.9211 60.912
lradius 29.9584
lwrist 1.0748
lhand -2.14659 49.4649
lfingers 7.12502
lthumb 23.5328 78.0453
rfemur -16.8502 -3.92144 20.724
rtibia 54.3164
rfoot -32.6814 -5.72464
rtoes -7.15966
lfemur -14.1093 5.73919 -20.8824
ltibia 46.2867
lfoot -26.0623 -8.42092
ltoes -11.2468
377
root 9.54869 16.3648 -24.1557 -16.9158 -80.6854 18.1178
lowerback 3.69892 0.861847 -2.7636
upperback 0.276288 1.05266 1.20403
thorax -1.8627 0.550546 2.73334
lowerneck -22.3094 6.00423 -3.07094
upperneck 22.6394 8.53398 3.26655
head 10.6681 4.00995 2.97646
rclavicle -1.2101e-014 3.18055e-015
rhumerus -36.969 -32.37 -60.7809
rradius 30.8358
rwrist -12.6205
rhand -15.32 3.93777
rfingers 7.12502
rthumb 10.8561 -25.7616
lclavicle -1.2101e-014 3.18055e-015
lhumerus -32.9835 30.9728 63.5034
lradius 29.2999
lwrist 0.610487
lhand -2.74945 49.4911
lfingers 7.12502
lthumb 22.9544 78.1446
rfemur -17.2783 -4.28384 21.0983
rtibia 55.1377
rfoot -34.4496 -6.69419
rtoes -7.04283
lfemur -14.3165 6.18459 -20.8117
ltibia 47.0082
lfoot -28.1474 -7.87224
ltoes -6.39166
378
root 9.57391 16.2349 -24.1393 -18.8941 -80.8196 20.448
lowerback 3.57862 0.897213 -3.32767
upperback 0.152922 1.08426 1.42506
thorax -1.9395 0.575586 3.27853
lowerneck -22.307 6.03853 -3.00033
upperneck 22.5666 8.70193 2.7334
head 10.6682 4.02379 2.79821
rclavicle -2.88238e-015 -4.77083e-015
rhumerus -36.5067 -32.0829 -62.5333
rradius 29.9886
rwrist -10.1705
rhand -12.7486 4.34809
rfingers 7.12502
rthumb 13.3355 -25.2052
lclavicle -2.88238e-015 -4.77083e-015
lhumerus -33.3403 31.9268 65.9843
lradius 28.501
lwrist -0.835657
lhand -2.88513 49.5263
lfingers 7.12502
lthumb 22.8242 78.1958
rfemur -18.2578 -4.64316 20.8712
rtibia 56.192
rfoot -35.8725 -7.63201
rtoes -7.07534
lfemur -14.9439 6.36075 -21.4728
ltibia 47.7074
lfoot -29.7231 -6.63062
ltoes -3.61094
